<?xml version="1.0" encoding="UTF-8" standalone="no"?>
<!DOCTYPE svg PUBLIC "-//W3C//DTD SVG 1.1//EN"
 "http://www.w3.org/Graphics/SVG/1.1/DTD/svg11.dtd">
<!-- Generated by graphviz version 2.40.1 (20161225.0304)
 -->
<!-- Title: snakemake_dag Pages: 1 -->
<svg width="255pt" height="404pt"
 viewBox="0.00 0.00 255.39 404.00" xmlns="http://www.w3.org/2000/svg" xmlns:xlink="http://www.w3.org/1999/xlink">
<g id="graph0" class="graph" transform="scale(1 1) rotate(0) translate(4 400)">
<title>snakemake_dag</title>
<polygon fill="#ffffff" stroke="transparent" points="-4,4 -4,-400 251.3924,-400 251.3924,4 -4,4"/>
<!-- 0 -->
<g id="node1" class="node">
<title>0</title>
<path fill="none" stroke="#d8a456" stroke-width="2" d="M137,-36C137,-36 107,-36 107,-36 101,-36 95,-30 95,-24 95,-24 95,-12 95,-12 95,-6 101,0 107,0 107,0 137,0 137,0 143,0 149,-6 149,-12 149,-12 149,-24 149,-24 149,-30 143,-36 137,-36"/>
<text text-anchor="middle" x="122" y="-15.5" font-family="sans" font-size="10.00" fill="#000000">all</text>
</g>
<!-- 1 -->
<g id="node2" class="node">
<title>1</title>
<path fill="none" stroke="#d85656" stroke-width="2" d="M82,-396C82,-396 12,-396 12,-396 6,-396 0,-390 0,-384 0,-384 0,-372 0,-372 0,-366 6,-360 12,-360 12,-360 82,-360 82,-360 88,-360 94,-366 94,-372 94,-372 94,-384 94,-384 94,-390 88,-396 82,-396"/>
<text text-anchor="middle" x="47" y="-375.5" font-family="sans" font-size="10.00" fill="#000000">error_correction</text>
</g>
<!-- 1&#45;&gt;0 -->
<g id="edge1" class="edge">
<title>1&#45;&gt;0</title>
<path fill="none" stroke="#c0c0c0" stroke-width="2" d="M38.9412,-359.7668C27.7866,-332.8248 9,-280.5405 9,-234 9,-234 9,-234 9,-162 9,-118.4059 20.77,-106.0437 48,-72 58.5123,-58.8572 72.978,-47.353 86.3326,-38.3784"/>
<polygon fill="#c0c0c0" stroke="#c0c0c0" stroke-width="2" points="88.3896,-41.2166 94.8953,-32.8543 84.5948,-35.3344 88.3896,-41.2166"/>
</g>
<!-- 2 -->
<g id="node3" class="node">
<title>2</title>
<path fill="none" stroke="#56d87b" stroke-width="2" d="M113.5,-108C113.5,-108 68.5,-108 68.5,-108 62.5,-108 56.5,-102 56.5,-96 56.5,-96 56.5,-84 56.5,-84 56.5,-78 62.5,-72 68.5,-72 68.5,-72 113.5,-72 113.5,-72 119.5,-72 125.5,-78 125.5,-84 125.5,-84 125.5,-96 125.5,-96 125.5,-102 119.5,-108 113.5,-108"/>
<text text-anchor="middle" x="91" y="-87.5" font-family="sans" font-size="10.00" fill="#000000">runSalmon</text>
</g>
<!-- 1&#45;&gt;2 -->
<g id="edge5" class="edge">
<title>1&#45;&gt;2</title>
<path fill="none" stroke="#c0c0c0" stroke-width="2" d="M46.5225,-359.7508C45.919,-319.8993 46.8398,-222.3835 67,-144 69.2776,-135.1447 72.8782,-125.9102 76.6046,-117.6338"/>
<polygon fill="#c0c0c0" stroke="#c0c0c0" stroke-width="2" points="79.8429,-118.9736 80.9652,-108.4383 73.518,-115.9742 79.8429,-118.9736"/>
</g>
<!-- 5 -->
<g id="node6" class="node">
<title>5</title>
<path fill="none" stroke="#56d8c9" stroke-width="2" d="M185.5,-324C185.5,-324 98.5,-324 98.5,-324 92.5,-324 86.5,-318 86.5,-312 86.5,-312 86.5,-300 86.5,-300 86.5,-294 92.5,-288 98.5,-288 98.5,-288 185.5,-288 185.5,-288 191.5,-288 197.5,-294 197.5,-300 197.5,-300 197.5,-312 197.5,-312 197.5,-318 191.5,-324 185.5,-324"/>
<text text-anchor="middle" x="142" y="-303.5" font-family="sans" font-size="10.00" fill="#000000">read_normalization</text>
</g>
<!-- 1&#45;&gt;5 -->
<g id="edge9" class="edge">
<title>1&#45;&gt;5</title>
<path fill="none" stroke="#c0c0c0" stroke-width="2" d="M70.9725,-359.8314C82.7861,-350.8779 97.1972,-339.9558 109.9435,-330.2955"/>
<polygon fill="#c0c0c0" stroke="#c0c0c0" stroke-width="2" points="112.1795,-332.9925 118.0352,-324.1628 107.9514,-327.4137 112.1795,-332.9925"/>
</g>
<!-- 2&#45;&gt;0 -->
<g id="edge2" class="edge">
<title>2&#45;&gt;0</title>
<path fill="none" stroke="#c0c0c0" stroke-width="2" d="M98.8226,-71.8314C102.2109,-63.9617 106.2541,-54.5712 110.0076,-45.8533"/>
<polygon fill="#c0c0c0" stroke="#c0c0c0" stroke-width="2" points="113.3321,-46.9822 114.0721,-36.4133 106.9027,-44.214 113.3321,-46.9822"/>
</g>
<!-- 3 -->
<g id="node4" class="node">
<title>3</title>
<path fill="none" stroke="#c6d856" stroke-width="2" d="M220.5,-180C220.5,-180 87.5,-180 87.5,-180 81.5,-180 75.5,-174 75.5,-168 75.5,-168 75.5,-156 75.5,-156 75.5,-150 81.5,-144 87.5,-144 87.5,-144 220.5,-144 220.5,-144 226.5,-144 232.5,-150 232.5,-156 232.5,-156 232.5,-168 232.5,-168 232.5,-174 226.5,-180 220.5,-180"/>
<text text-anchor="middle" x="154" y="-159.5" font-family="sans" font-size="10.00" fill="#000000">runAssemblerWithKREATION</text>
</g>
<!-- 3&#45;&gt;0 -->
<g id="edge3" class="edge">
<title>3&#45;&gt;0</title>
<path fill="none" stroke="#c0c0c0" stroke-width="2" d="M150.2933,-143.6956C146.5689,-125.4872 140.5944,-96.7674 135,-72 133.1177,-63.667 130.9813,-54.6343 128.9921,-46.3842"/>
<polygon fill="#c0c0c0" stroke="#c0c0c0" stroke-width="2" points="132.3439,-45.3549 126.5814,-36.4643 125.5419,-47.008 132.3439,-45.3549"/>
</g>
<!-- 3&#45;&gt;2 -->
<g id="edge6" class="edge">
<title>3&#45;&gt;2</title>
<path fill="none" stroke="#c0c0c0" stroke-width="2" d="M138.1024,-143.8314C130.7722,-135.454 121.934,-125.3531 113.9031,-116.1749"/>
<polygon fill="#c0c0c0" stroke="#c0c0c0" stroke-width="2" points="116.3307,-113.6343 107.1116,-108.4133 111.0627,-118.2438 116.3307,-113.6343"/>
</g>
<!-- 4 -->
<g id="node5" class="node">
<title>4</title>
<path fill="none" stroke="#78d856" stroke-width="2" d="M213.5,-252C213.5,-252 94.5,-252 94.5,-252 88.5,-252 82.5,-246 82.5,-240 82.5,-240 82.5,-228 82.5,-228 82.5,-222 88.5,-216 94.5,-216 94.5,-216 213.5,-216 213.5,-216 219.5,-216 225.5,-222 225.5,-228 225.5,-228 225.5,-240 225.5,-240 225.5,-246 219.5,-252 213.5,-252"/>
<text text-anchor="middle" x="154" y="-231.5" font-family="sans" font-size="10.00" fill="#000000">createConfigforKREATION</text>
</g>
<!-- 4&#45;&gt;0 -->
<g id="edge4" class="edge">
<title>4&#45;&gt;0</title>
<path fill="none" stroke="#c0c0c0" stroke-width="2" d="M201.992,-215.9585C217.5962,-207.5363 233.1587,-195.7985 242,-180 249.8137,-166.0377 247.9423,-158.8556 242,-144 224.9474,-101.3685 185.8417,-64.943 156.8817,-42.3825"/>
<polygon fill="#c0c0c0" stroke="#c0c0c0" stroke-width="2" points="158.7128,-39.378 148.6332,-36.1142 154.4774,-44.9514 158.7128,-39.378"/>
</g>
<!-- 4&#45;&gt;3 -->
<g id="edge7" class="edge">
<title>4&#45;&gt;3</title>
<path fill="none" stroke="#c0c0c0" stroke-width="2" d="M154,-215.8314C154,-208.131 154,-198.9743 154,-190.4166"/>
<polygon fill="#c0c0c0" stroke="#c0c0c0" stroke-width="2" points="157.5001,-190.4132 154,-180.4133 150.5001,-190.4133 157.5001,-190.4132"/>
</g>
<!-- 5&#45;&gt;4 -->
<g id="edge8" class="edge">
<title>5&#45;&gt;4</title>
<path fill="none" stroke="#c0c0c0" stroke-width="2" d="M145.0281,-287.8314C146.3115,-280.131 147.8376,-270.9743 149.2639,-262.4166"/>
<polygon fill="#c0c0c0" stroke="#c0c0c0" stroke-width="2" points="152.7394,-262.8526 150.9311,-252.4133 145.8347,-261.7018 152.7394,-262.8526"/>
</g>
</g>
</svg>
